<?xml version="1.0" encoding="utf-8"?>
<!-- Generator: Adobe Illustrator 17.1.0, SVG Export Plug-In . SVG Version: 6.00 Build 0)  -->
<!DOCTYPE svg PUBLIC "-//W3C//DTD SVG 1.1//EN" "http://www.w3.org/Graphics/SVG/1.1/DTD/svg11.dtd">
<svg version="1.1" id="Layer_1" xmlns="http://www.w3.org/2000/svg" xmlns:xlink="http://www.w3.org/1999/xlink" x="0px" y="0px"
	 viewBox="0 0 30 30" enable-background="new 0 0 30 30" xml:space="preserve">
<g>
	<path fill="#FFFFFF" d="M15,0.4C23,0.4,29.6,7,29.6,15c0,2.4-0.6,4.7-1.5,6.6c-0.1,0.1-1.3,2.4-3.7,3.1c-0.3,0.1-0.6,0.1-0.8,0.1
		c-1.2,0-1.9-0.5-2.3-1.2c-0.5-0.6-0.7-1.3-0.7-2v-1.4c-1.4,1.5-3.3,2.4-5.4,2.4c-4.1,0-7.5-3.6-7.5-7.8s3.4-7.8,7.5-7.8
		s7.3,3.5,7.3,7.8v0.3v0.2v6.1l0,0c0,0.2,0.1,0.7,0.2,0.9c0.1,0.1,0.3,0.3,0.7,0.3h0.3c1.3-0.3,2.2-1.7,2.4-2.2
		c0.9-1.6,1.4-3.6,1.4-5.7c0-6.9-5.7-12.5-12.6-12.5S2.4,8.1,2.4,15S8.1,27.6,15,27.6c1,0,2.1,0,3.1-0.3c0.6-0.1,1.2,0.1,1.2,0.7
		c0.2,0.6-0.1,1.2-0.7,1.2c-1.2,0.3-2.3,0.5-3.6,0.5C6.8,29.7,0.4,23.1,0.4,15C0.4,7,6.8,0.4,15,0.4z M15,20.7
		c2.9,0,5.4-2.4,5.4-5.7c0-3.1-2.4-5.7-5.4-5.7c-2.9,0-5.2,2.6-5.2,5.7C9.8,18.3,12.1,20.7,15,20.7z"/>
</g>
</svg>
